<svg id="Layer_1" data-name="Layer 1" xmlns="http://www.w3.org/2000/svg" viewBox="0 0 181.58 159.43"><defs><style>.cls-1{fill:#3a1037;}</style></defs><title>logo_alt</title><path class="cls-1" d="M65.34,159.41A12.48,12.48,0,0,1,59,157.69c-2.3-1.31-9.3-5.28-17.7-29.17-3.75-10.66-6.09-20.39-6.35-21.47-7-26.53-15.59-55.86-15.68-56.15-1.52-5.13-4.14-6.11-5-6.29-1.05,1-2.28,5.49-2.27,9.76v.09C11.69,79.11,31.81,116.62,32,117L21.47,122.7C20.58,121.06-.31,82.14,0,54.38,0,43.6,4.3,32.7,14.11,32.59h0c4.51,0,13.1,3,16.63,14.92.09.32,8.74,29.85,15.79,56.56l0,.16a222.21,222.21,0,0,0,6.72,22.3c5.85,16,10.14,19.81,11.5,20.66.92-1.51,1.87-5.83-.92-14.61C63.85,132.41,56.67,110.44,51,96c-.57-1.41-9.18-22.92-9.81-35.59v-.09C41,55,43.09,45.61,51.92,44.05l.84-.15.85.09c3.66.4,10.25,3.34,12,11.85a213.79,213.79,0,0,0,6.61,20.59c3.14,7.76,9.12,21.54,11.74,25.35L74,108.56c-4.21-6.14-12.09-25.47-13-27.65a224.68,224.68,0,0,1-7.14-22.19l-.09-.41a5.06,5.06,0,0,0-.3-1,10.53,10.53,0,0,0-.32,2.58c.47,9,6.62,25.9,9,31.67l0,.08C68,106.37,75,128,75.32,128.91c7.61,24-4.9,29.34-6.35,29.87l-.25.08A11.6,11.6,0,0,1,65.34,159.41Z" transform="translate(0 -1.05)"/><path class="cls-1" d="M85.41,148.51c-9.68-23.29.81-40.51,2.46-43,28-48.25,33.32-62.62,33.37-62.76l.14-.36c4.55-10.5,4.07-15.68,3.37-17.83-.08-.26-.53-1.45-.53-1.45-1.47-.67-2.12-.37-2.43-.23-2.12,1-4.21,4.95-5,7.35l0,.09C110.29,50.53,100.51,61.26,99,62.86c-8.65,10-17.6,7.89-21.48,5.2-6-3.75-5.21-13.18-4.54-17.16C77,24.62,105.38,2,106.59,1L114,10.46,110.3,5.76,114,10.46c-.26.2-25.88,20.7-29.22,42.31v.08a19.85,19.85,0,0,0-.14,5.41c1.09.18,3-.58,5.35-3.35l.32-.35c.07-.07,9.08-9.36,15.06-27.87C105.81,25.28,109,15.51,116.8,12a14.57,14.57,0,0,1,12.34.21c1.56.7,15,7.69,3.3,34.83-.78,2.06-7,17.55-34.31,64.69l-.3.47c-.35.5-9,13.4-1.35,31.74Z" transform="translate(0 -1.05)"/><path class="cls-1" d="M123,160.47c-4.28,0-10.15-1.28-16-7l-.15-.16c-.6-.62-5.83-6.33-4.55-14.08,1-5.83,5.19-10.72,12.57-14.52l.39-.18c.22-.1,5.47-2.34,14.12-5.59.76-.37,2.66-1.6,3-3.21l11.69,2.68c-1.82,7.92-9.25,11.24-10.1,11.6l-.22.09c-7.56,2.83-12.57,4.93-13.6,5.37-3.55,1.87-5.75,3.95-6,5.73s1.12,3.51,1.33,3.78c2.68,2.55,5.3,3.68,8,3.46,5.13-.42,10.07-5.57,11.64-7.65a428.64,428.64,0,0,0,33-60.29,29.62,29.62,0,0,0,1.18-4.25,31.9,31.9,0,0,0-1.87,3.17A180.92,180.92,0,0,1,156.49,98.9l-.05.08c-8.75,13-19,13.06-21.16,12.92-5.71-.22-8.84-2.87-10.46-5.06-3.8-5.13-2.5-11.7-2.06-13.45,3.8-18.49,14.68-41.62,15.77-43.91,3.25-7.79,7.56-12.56,12.82-14.18a12.68,12.68,0,0,1,10,1A13.2,13.2,0,0,1,168,44.2c1.5,4.6,1,10.61-1.48,17.88a11,11,0,0,1,3.06-1.25,9.09,9.09,0,0,1,7.68,1.65l.11.09a11.51,11.51,0,0,1,3.71,6.57c1,4.26.37,9.51-1.8,15.58l-.13.33A431.15,431.15,0,0,1,145,147.57l-.15.22c-.86,1.19-8.77,11.61-20.33,12.61C124.06,160.44,123.56,160.47,123,160.47Zm11.41-60.79a3.62,3.62,0,0,0,1.34.22h.39c.89,0,5.51-.57,10.29-7.62a171,171,0,0,0,10.1-18l.07-.15a44.62,44.62,0,0,1,2.23-3.94l-7.15-3.88c2.75-5.08,6.2-14.44,4.91-18.41a1.26,1.26,0,0,0-.75-.92l-.48-.25a1,1,0,0,0-.67.07c-.6.24-2.75,1.49-5.19,7.4l-.14.3c-.11.24-11.35,23.81-14.93,41.42l-.09.37a6,6,0,0,0,.06,3.38Zm34.8-28.43Zm-13.78-24.5Z" transform="translate(0 -1.05)"/><path class="cls-1" d="M163.54,146.77a6.57,6.57,0,0,1-3.91-1.23c-2.43-1.72-3.38-4.7-2.54-8a14.1,14.1,0,0,1,2.17-4.51c4-5.62,8.84-6,11.89-3.8,2.43,1.72,3.38,4.7,2.54,8a15.07,15.07,0,0,1-5.71,8.06A8.15,8.15,0,0,1,163.54,146.77ZM162,135a5.31,5.31,0,0,0,6.8,4.82A5.31,5.31,0,0,0,162,135Z" transform="translate(0 -1.05)"/></svg>